<?xml version="1.0" encoding="utf-8"?>
<!-- Generator: Adobe Illustrator 22.1.0, SVG Export Plug-In . SVG Version: 6.00 Build 0)  -->
<svg version="1.1" id="Calque_1" xmlns="http://www.w3.org/2000/svg" xmlns:xlink="http://www.w3.org/1999/xlink" x="0px" y="0px"
	 viewBox="0 0 100 100" width="24" height="24" xml:space="preserve">
<g>
	<path d="M10.9,53.4c0,0,0.1,0,0.1,0c1,0,1.9-0.8,1.9-1.8c1.1-15,10.5-27.2,24.8-32.1c1.2,5.8,6.2,9.9,12.2,9.9
		c5.8,0,10.8-4,12.1-9.7c0.2-0.9,0.3-1.9,0.3-2.8v0c0-6.9-5.6-12.5-12.5-12.5c-6.4,0-11.6,4.7-12.4,11C21.5,20.5,10.3,34.6,9.1,51.4
		c0,0.5,0.1,1,0.5,1.4C9.9,53.2,10.4,53.4,10.9,53.4z"/>
	<path d="M95.4,71.1c0-0.1,0-0.2,0-0.2l0-0.1c-0.1-0.3-0.1-0.7-0.2-1c0-0.1-0.1-0.3-0.1-0.4c-0.1-0.3-0.2-0.7-0.3-1l-0.1-0.3
		c-0.2-0.5-0.4-0.8-0.6-1.3c-0.2-0.4-0.5-0.8-0.7-1.2c-0.1-0.1-0.1-0.2-0.2-0.2L93,65.1c-0.2-0.3-0.4-0.5-0.6-0.7
		c-0.1-0.1-0.2-0.3-0.4-0.4c-0.2-0.2-0.4-0.4-0.6-0.6l-0.1-0.1c-0.1-0.1-0.2-0.2-0.3-0.3c-0.3-0.2-0.5-0.4-0.8-0.6
		c0.5-2.6,0.8-5.3,0.8-7.8c0-14.3-7.3-27.4-19.5-34.9c-0.4-0.3-1-0.4-1.5-0.2c-0.5,0.1-0.9,0.4-1.2,0.9c-0.6,0.9-0.3,2.1,0.6,2.7
		c11.1,6.8,17.7,18.6,17.7,31.6c0,1.9-0.2,4-0.5,6.1c-1.2-0.3-2.3-0.5-3.5-0.5c-6.9,0-12.5,5.6-12.5,12.5S76.2,85,83,85
		c0.8,0,1.6-0.1,2.4-0.2l0.1,0c0.1,0,0.2,0,0.3-0.1l0.2,0c5.6-1.4,9.5-6.3,9.5-12.1v0C95.5,72.1,95.5,71.6,95.4,71.1z M85.4,84.3
		L85.4,84.3L85.4,84.3L85.4,84.3z"/>
	<path d="M64.2,88.8c-4.5,1.9-9.3,2.8-14.2,2.8c-9.1,0-18.1-3.5-24.9-9.6c2.8-2.4,4.3-5.8,4.3-9.4c0-6.3-4.7-11.6-10.9-12.4
		c-0.6-0.1-1.1-0.1-1.6-0.1c-0.7,0-1.5,0.1-2.3,0.2c-5.8,1.1-10,6.1-10.2,12.1c0,0.1,0,0.1,0,0.2C4.5,79.4,10.1,85,17,85
		c1.6,0,3.2-0.3,4.7-0.9c7.6,7.3,17.9,11.4,28.4,11.4c5.4,0,10.7-1,15.7-3.1c0.5-0.2,0.9-0.6,1.1-1.1c0.2-0.5,0.2-1,0-1.5
		C66.3,88.9,65.2,88.4,64.2,88.8z"/>
</g>
</svg>
