<?xml version="1.0" encoding="UTF-8" standalone="no"?>
<svg
   xmlns:dc="http://purl.org/dc/elements/1.1/"
   xmlns:cc="http://creativecommons.org/ns#"
   xmlns:rdf="http://www.w3.org/1999/02/22-rdf-syntax-ns#"
   xmlns:svg="http://www.w3.org/2000/svg"
   xmlns="http://www.w3.org/2000/svg"
   xmlns:sodipodi="http://sodipodi.sourceforge.net/DTD/sodipodi-0.dtd"
   xmlns:inkscape="http://www.inkscape.org/namespaces/inkscape"
   width="24"
   height="24"
   viewBox="0 0 24 24"
   version="1.1"
   id="svg6"
   sodipodi:docname="zero.svg"
   inkscape:version="0.92.4 (5da689c313, 2019-01-14)">
  <metadata
     id="metadata12">
    <rdf:RDF>
      <cc:Work
         rdf:about="">
        <dc:format>image/svg+xml</dc:format>
        <dc:type
           rdf:resource="http://purl.org/dc/dcmitype/StillImage" />
        <dc:title></dc:title>
      </cc:Work>
    </rdf:RDF>
  </metadata>
  <defs
     id="defs10" />
  <sodipodi:namedview
     pagecolor="#ffffff"
     bordercolor="#666666"
     borderopacity="1"
     objecttolerance="10"
     gridtolerance="10"
     guidetolerance="10"
     inkscape:pageopacity="0"
     inkscape:pageshadow="2"
     inkscape:window-width="1858"
     inkscape:window-height="1057"
     id="namedview8"
     showgrid="false"
     inkscape:zoom="9.8333333"
     inkscape:cx="-2.7966102"
     inkscape:cy="12"
     inkscape:window-x="-8"
     inkscape:window-y="-8"
     inkscape:window-maximized="1"
     inkscape:current-layer="svg6" />
  <path
     fill="none"
     d="M0 0h24v24H0V0z"
     id="path2" />
  <path
     d="m 14.825,7.05 c -0.34,-0.4 -0.75,-0.7 -1.23,-0.88 -0.47,-0.18 -1.01,-0.27 -1.59,-0.27 -0.58,0 -1.11,0.09 -1.59,0.27 -0.4799998,0.18 -0.8899998,0.47 -1.2300002,0.88 -0.34,0.41 -0.6,0.93 -0.79,1.59 -0.18,0.65 -0.28,1.45 -0.28,2.39 v 1.92 c 0,0.94 0.09,1.74 0.28,2.39 0.19,0.66 0.45,1.19 0.8,1.6 0.3400004,0.41 0.7500004,0.71 1.2300002,0.89 0.48,0.18 1.01,0.28 1.59,0.28 0.59,0 1.12,-0.09 1.59,-0.28 0.48,-0.18 0.88,-0.48 1.22,-0.89 0.34,-0.41 0.6,-0.94 0.78,-1.6 0.18,-0.65 0.28,-1.45 0.28,-2.39 v -1.92 c 0,-0.94 -0.09,-1.74 -0.28,-2.39 -0.18,-0.66 -0.44,-1.19 -0.78,-1.59 z m -0.92,6.17 c 0,0.6 -0.04,1.11 -0.12,1.53 -0.08,0.42 -0.2,0.76 -0.36,1.02 -0.16,0.26 -0.36,0.45 -0.59,0.57 -0.23,0.12 -0.51,0.18 -0.82,0.18 -0.3,0 -0.58,-0.06 -0.82,-0.18 -0.24,-0.12 -0.44,-0.31 -0.6,-0.57 -0.16,-0.26 -0.29,-0.6 -0.38,-1.02 -0.09,-0.42 -0.13,-0.93 -0.13,-1.53 v -2.5 c 0,-0.6 0.04,-1.11 0.13,-1.52 0.09,-0.41 0.21,-0.74 0.38,-1 0.16,-0.25 0.36,-0.43 0.6,-0.55 0.24,-0.11 0.51,-0.17 0.81,-0.17 0.31,0 0.58,0.06 0.81,0.17 0.24,0.11 0.44,0.29 0.6,0.55 0.16,0.25 0.29,0.58 0.37,0.99 0.08,0.41 0.13,0.92 0.13,1.52 v 2.51 z"
     id="path4"
     inkscape:connector-curvature="0"
     sodipodi:nodetypes="scssscssccsscscsscscssssssssssccsccsscc" />
</svg>
