<?xml version="1.0" encoding="utf-8"?>
<svg version="1.1" id="svg__logo" xmlns="http://www.w3.org/2000/svg" xmlns:xlink="http://www.w3.org/1999/xlink" x="0px" y="0px" viewBox="0 0 595.3 595.3" style="enable-background:new 0 0 595.3 595.3;" xml:space="preserve">
<style type="text/css">
	.svg__logoBackground{fill:#FFFFFF;}
</style>
<rect class="svg__logoBackground" width="595.3" height="595.3"/>
<g>
	<path d="M126.1,269.2c7.5,0,11.3-4.2,11.3-12.1V120.3c0-25.1,17.6-42.7,42.7-42.7h52.7v48.5h-31.4c-7.5,0-11.3,4.2-11.3,12.5v122.6
		c0,18.8-13,33.5-32.6,33.5h-6.7v5.9h6.7c19.7,0,32.6,14.6,32.6,33.5v122.6c0,8.4,3.8,12.5,11.3,12.5h31.4v48.5h-52.7
		c-25.1,0-42.7-17.6-42.7-42.7V338.2c0-7.9-3.8-12.1-11.3-12.1H97.3v-56.9H126.1z"/>
	<path d="M498,326.1h-28.9c-7.5,0-11.3,4.2-11.3,12.1V475c0,25.1-17.6,42.7-42.7,42.7h-52.7v-48.5h31.4c7.5,0,11.3-4.2,11.3-12.5
		V334c0-18.8,13-33.5,32.6-33.5h6.7v-5.9h-6.7c-19.7,0-32.6-14.6-32.6-33.5V138.7c0-8.4-3.8-12.5-11.3-12.5h-31.4V77.6h52.7
		c25.1,0,42.7,17.6,42.7,42.7v136.8c0,7.9,3.8,12.1,11.3,12.1H498V326.1z"/>
</g>
</svg>
