<svg xmlns:dc="http://purl.org/dc/elements/1.1/" xmlns:cc="http://creativecommons.org/ns#" xmlns:rdf="http://www.w3.org/1999/02/22-rdf-syntax-ns#" xmlns:svg="http://www.w3.org/2000/svg" xmlns="http://www.w3.org/2000/svg" xmlns:sodipodi="http://sodipodi.sourceforge.net/DTD/sodipodi-0.dtd" xmlns:inkscape="http://www.inkscape.org/namespaces/inkscape" version="1.1" x="0px" y="0px" viewBox="0 0 100 100"><g transform="translate(0,-952.36218)"><path d="m 79.9999,1002.3622 c 0,-0.4628 -0.2799,-1.0773 -0.56389,-1.3755 l -15.9997,-17.00032 c -0.747,-0.7723 -1.9572,-0.8618 -2.8281,-0.078 -0.7786,0.7007 -0.798,2.0673 -0.078,2.8282 l 12.8435,13.62522 -51.37361,0 c -1.1046,0 -2,0.8954 -2,2 0,1.1046 0.8954,2.0001 2,2.0001 l 51.37361,0 -12.8435,13.6252 c -0.7199,0.7608 -0.6688,2.0938 0.078,2.8281 0.7885,0.7752 2.0925,0.7062 2.8281,-0.078 l 15.9997,-17.0002 c 0.4701,-0.4611 0.556,-0.9052 0.56389,-1.3748 z" marker="none" visibility="visible" display="inline" overflow="visible"/></g><!--<text x="0" y="115" fill="#000000" font-size="5px" font-weight="bold" font-family="'Helvetica Neue', Helvetica, Arial-Unicode, Arial, Sans-serif">Created by unlimicon</text><text x="0" y="120" fill="#000000" font-size="5px" font-weight="bold" font-family="'Helvetica Neue', Helvetica, Arial-Unicode, Arial, Sans-serif">from the Noun Project</text>--></svg>