<svg xmlns:rdf="http://www.w3.org/1999/02/22-rdf-syntax-ns#" xmlns="http://www.w3.org/2000/svg" xmlns:cc="http://creativecommons.org/ns#" xmlns:dc="http://purl.org/dc/elements/1.1/" version="1.1" x="0px" y="0px" viewBox="0 0 100 100"><g transform="translate(0,-952.36218)"><path style="enable-background:accumulate;color:#000000;" fill="#000" d="m27.038,970.15-23.178,41.246,41.176,23.183,0.0269-0.016,23.194-41.219-41.219-23.194zm-10.086,30.969c2.0921-1.2362,4.7829-0.5671,6.0191,1.525s0.54018,4.7988-1.5519,6.035-4.7988,0.5402-6.035-1.5519c-1.2363-2.0922-0.52428-4.7719,1.5678-6.0081zm16.431-4.6273c2.0921-1.2362,4.7988-0.54022,6.035,1.5519,1.2362,2.092,0.54018,4.7988-1.5519,6.035s-4.7988,0.5402-6.035-1.5519c-1.2363-2.0921-0.54018-4.7988,1.5519-6.035zm25.081-10.936,11.64,6.5525a1.0001,1.0001,0,0,1,0.38765,1.3318l-22.631,40.19,0.0037,0.252,48.275-0.4312-0.42016-48.318-37.256,0.34446zm-8.6338,6.3358c2.0921-1.2362,4.7988-0.54024,6.035,1.5519s0.54018,4.7988-1.5519,6.035-4.7988,0.54012-6.035-1.5519c-1.2363-2.0922-0.54018-4.7988,1.5519-6.035zm31.684,1.7136c2.0921-1.2362,4.7719-0.52432,6.0081,1.5678s0.56708,4.7829-1.525,6.0191-4.7988,0.5401-6.035-1.5519c-1.2362-2.0922-0.54018-4.7988,1.5519-6.035zm-21.389,24.617c2.0921-1.2362,4.7719-0.5244,6.0081,1.5678,1.2362,2.0921,0.56708,4.7829-1.525,6.0191s-4.7988,0.5402-6.035-1.5519c-1.2362-2.0922-0.54018-4.7988,1.5519-6.035zm21.586-0.4498c2.0921-1.2363,4.7988-0.5402,6.035,1.5519s0.54018,4.7988-1.5519,6.035c-2.0921,1.2363-4.7719,0.5243-6.0081-1.5678s-0.56708-4.7829,1.525-6.0191z"/></g><!--<text x="0" y="115" font-size="5px" font-weight="bold" font-family="'Helvetica Neue', Helvetica, Arial-Unicode, Arial, Sans-serif">Created by maspao</text><text x="0" y="120" font-size="5px" font-weight="bold" font-family="'Helvetica Neue', Helvetica, Arial-Unicode, Arial, Sans-serif">from the Noun Project</text>--></svg>