<?xml version="1.0" encoding="UTF-8" standalone="no"?>
<svg
   xmlns:dc="http://purl.org/dc/elements/1.1/"
   xmlns:cc="http://creativecommons.org/ns#"
   xmlns:rdf="http://www.w3.org/1999/02/22-rdf-syntax-ns#"
   xmlns:svg="http://www.w3.org/2000/svg"
   xmlns="http://www.w3.org/2000/svg"
   xmlns:sodipodi="http://sodipodi.sourceforge.net/DTD/sodipodi-0.dtd"
   xmlns:inkscape="http://www.inkscape.org/namespaces/inkscape"
   width="24"
   height="24"
   viewBox="0 0 24 24"
   version="1.1"
   id="svg3925"
   sodipodi:docname="void.svg"
   inkscape:version="0.92.4 (5da689c313, 2019-01-14)">
  <metadata
     id="metadata3931">
    <rdf:RDF>
      <cc:Work
         rdf:about="">
        <dc:format>image/svg+xml</dc:format>
        <dc:type
           rdf:resource="http://purl.org/dc/dcmitype/StillImage" />
        <dc:title></dc:title>
      </cc:Work>
    </rdf:RDF>
  </metadata>
  <defs
     id="defs3929" />
  <sodipodi:namedview
     pagecolor="#ffffff"
     bordercolor="#666666"
     borderopacity="1"
     objecttolerance="10"
     gridtolerance="10"
     guidetolerance="10"
     inkscape:pageopacity="0"
     inkscape:pageshadow="2"
     inkscape:window-width="1858"
     inkscape:window-height="1057"
     id="namedview3927"
     showgrid="false"
     inkscape:zoom="27.82"
     inkscape:cx="12"
     inkscape:cy="12"
     inkscape:window-x="-8"
     inkscape:window-y="-8"
     inkscape:window-maximized="1"
     inkscape:current-layer="svg3925" />
  <path
     fill="none"
     d="M0 0h24v24H0V0z"
     id="path3921" />
  <path
     d="M 10.04,6.29 C 10.66,6.11 11.32,6 12,6 c 3.86,0 7,3.14 7,7 0,0.68 -0.11,1.34 -0.29,1.96 l 1.56,1.56 C 20.74,15.44 21,14.25 21,13 21,8.03 16.97,4 12,4 10.75,4 9.56,4.26 8.47,4.72 Z M 3.02,2.1 1.61,3.51 5.2,7.11 C 3.83,8.69 3,10.75 3,13 c 0,4.97 4.03,9 9,9 2.25,0 4.31,-0.83 5.89,-2.2 l 2.1,2.1 1.41,-1.41 z M 12,20 C 8.14,20 5,16.86 5,13 5,11.3 5.61,9.74 6.62,8.53 l 9.85,9.85 C 15.26,19.39 13.7,20 12,20 Z"
     id="path3923"
     inkscape:connector-curvature="0"
     sodipodi:nodetypes="cssccsscccccssccccssccs" />
</svg>
